
<svg version="1.1" viewBox="0 0 260 490" xml:space="preserve" xmlns="http://www.w3.org/2000/svg"><defs><clipPath id="neupath1"><path d="m0 576h1024v-576h-1024z"/></clipPath></defs><g transform="matrix(1.3333 0 0 -1.3333 0 490)"><g transform="translate(-390.89 -103.31)"><g clip-path="url(#neupath1)"><g transform="translate(456.3 375.68)"><path d="m0 0c-2.617 5.935-6.659 11.665-12.499 14.72-3.547 1.857-7.85 0.928-11.619 0.449-4.799-0.61-9.577-1.359-14.399-1.768-2.569-0.218-7-0.902-9.244 0.802-2.23 1.693-1.959-13.704 0.66-8.586 0.3 0.585 0.565 1.189 0.832 1.789 1.636 3.676 3.185 7.383 4.915 11.017 13.799 28.985 37.744 51.334 70.096 56.955 35.621 6.19 77.109-5.658 91.362-41.609 2.006-5.06 3.321-10.387 3.938-15.52 0.217-1.806 0.226-2.682 0.217-4.13-0.01-1.646 0.069 1.547-2e-3 -0.024-0.019-0.418-0.051-0.835-0.083-1.251 0.154 1.984-0.351-1.613-0.051-0.133-0.106-0.526 0.156-0.316-0.398-0.896-1.446-1.51-5.871-1.327-7.751-1.515-7.403-0.739-15.664-1.091-21.773-5.855-2.529-1.973-3.729-5.191-4.263-8.244-0.544-3.115-0.684-6.437 0-9.546 0.495-2.247 1.677-2.423 2.1 0 1.381 7.902 13.066 8.983 19.354 9.69 3.091 0.347 11.749-0.329 13.536 3.056 4.112 7.789 2.572 19.805 1.353 28.095-1.89 12.849-6.655 25.219-14.618 35.539-10.614 13.757-26.644 21.728-43.397 25.161-20.809 4.266-43.433 2.442-62.787-6.497-14.504-6.699-26.603-17.627-35.956-30.461-6.6-9.057-11.645-19.102-16.071-29.363-1.967-4.557-3.761-7.115-3.675-12.646 0.047-3.017-0.172-7.17 2.871-8.797 2.98-1.593 7.81-0.643 10.971-0.337 7.053 0.681 15.997 3.782 22.918 1.535 5.458-1.772 9.75-8.265 11.964-13.287 1.139-2.582 1.92 1.553 2.032 2.422 0.358 2.777 0.634 6.589-0.533 9.235" fill="#231f20"/></g><g transform="translate(423.31 397.72)"><path d="m0 0c16.05 1.729 24.586 9.781 48.803 5.76 11.667-1.938 21.343-11.494 33.45-3.997 11.769 7.288 13.642 18.741 30.021 16.48 7.266-1.003 11.168-3.783 15.118-9.418 3.209-4.576 16.887-10.131 23.658-9.499l0.637-7.048s-36.476 0.895-34.996-23.899c1.634-27.342 8.32-77.753-9.449-126.92-15.005-41.525-29.152-65.246-43.391-95.883-6.392-13.753-15.315-36.55-15.694-34.865-1.575 7.009 4.12 29.882 18.394 65.17 9.733 24.064 28.701 60.008 36.73 89.273 11.431 41.658 11.089 70.903 0.901 101.87-3.005 9.131-7.032 16.936-15.291 17.155-2.988 0.079-9.535-5.41-8.626-13.69 2.62-23.858 39.45-115.18 45.152-163.92 4.727-40.409-7.418-68.881-16.304-81.407-0.049-0.068-1.255-0.438 1e-3 3.004 4.856 13.317 15.994 41.727 4.24 79.136-24.919 79.322-39.193 145.67-41.531 157.41-0.027 0.134-1.911 18.19-14.869 20.989-6.946 1.5-8.736-5.032-9.97-13.275-1.449-9.681-1.998-71.798-16.078-114.76-15.853-48.369-50.569-73.673-57.346-80.15-0.269-0.258-3.931-1.714-2.317 0.76 6.403 9.8 35.835 42.301 46.971 79.624 12.507 41.914 18.743 92.527 19.38 115.07 0.207 7.383-2.022 22.154-17.74 24.233-8.77 1.162-22.348-1.207-22.348-1.207l2.213 3.555z" fill="#231f20"/></g></g></g></g></svg>
